<?xml version="1.0" encoding="utf-8"?>
<!-- Generator: Adobe Illustrator 19.1.0, SVG Export Plug-In . SVG Version: 6.00 Build 0)  -->
<svg version="1.1" id="Layer_1" xmlns="http://www.w3.org/2000/svg" xmlns:xlink="http://www.w3.org/1999/xlink" x="0px" y="0px"
	 viewBox="0 0 374 170" enable-background="new 0 0 374 170" xml:space="preserve">
<g>
	<path fill="#73C8B9" d="M121.3,86.2c0,2.3-1.5,3.9-4,3.9c-2.4,0-4-1.7-4-3.9c0-2.3,1.6-4,4-4C119.8,82.2,121.3,83.9,121.3,86.2z"/>
	<path fill="#73C8B9" d="M155.9,112l-12.9,37h-2.6l42.6-121.6h3.1L229,148.9h-2.7l-12.9-37H155.9z M184.6,29.5l-27.9,80.1h55.7
		L184.6,29.5z"/>
	<path fill="#73C8B9" d="M256.1,86.2c0,2.3-1.5,3.9-4,3.9c-2.4,0-4-1.7-4-3.9c0-2.3,1.6-4,4-4C254.6,82.2,256.1,83.9,256.1,86.2z"/>
	<path fill="#73C8B9" d="M55.8,84.5L55.8,84.5c13.7-2,23.9-11.5,23.9-27.2c0-19.5-14.2-30-39.5-30H18.4v2.4h22.1
		c23.6,0,36.5,9.6,36.5,27.6c0,15.2-11.4,26.1-27.9,26.1H18.4v2.3H50c19.3,0,33.5,10.7,33.5,30.3c0,21.9-15.6,30.4-37.8,30.4H18.4
		v2.4h-3v0h30.1c24.2,0,40.6-9.8,40.6-32.8C86.1,95.7,72.1,85.4,55.8,84.5z"/>
	<path fill="#73C8B9" d="M355.9,126.2c-9.5,15.7-25.1,20.3-40.3,20.3h-18.9l0-116.7h17.7c15.6,0,31.9,3.5,41.6,18.7v-4.5
		c-10.3-13.2-26-16.6-41.3-16.6v0h-20.5v121.6h21.4c14.5,0,30.1-4.1,40.4-18.1V126.2z"/>
</g>
<rect fill="none" width="374" height="170"/>
</svg>
